<svg xmlns="http://www.w3.org/2000/svg" width="32" height="32"><path d="M15.917.073C11.899.089 7.909.599 5.833 1.556c0 0-4.466 2.033-4.466 8.959 0 8.244-.006 18.597 7.4 20.6 2.836.761 5.275.925 7.236.812 3.558-.2 5.318-1.291 5.318-1.291l-.12-2.63s-2.306.813-5.162.72c-2.83-.1-5.81-.312-6.275-3.845a7.504 7.504 0 0 1-.062-.993c5.996 1.489 11.108.649 12.516.478 3.93-.477 7.35-2.941 7.787-5.194.684-3.549.626-8.657.626-8.657 0-6.926-4.459-8.959-4.459-8.959C23.983.534 19.935.056 15.917.073m-4.3 5.282c1.377.037 2.737.653 3.575 1.954l.81 1.377.809-1.377c1.683-2.617 5.454-2.454 7.249-.429 1.655 1.926 1.286 3.17 1.286 11.775v.003h-3.255V11.17c0-3.506-4.47-3.641-4.47.486v4.339h-3.234v-4.34c0-4.126-4.467-3.993-4.467-.488v7.488H6.657c0-8.612-.362-9.863 1.286-11.775.904-1.019 2.297-1.562 3.674-1.525" style="stroke-width:1.33031"/></svg>