<?xml version="1.0" encoding="UTF-8" standalone="no"?>
<svg
   viewBox="0 0 32 32"
   width="32px"
   height="32px"
   version="1.1"
   id="svg99"
   sodipodi:docname="mastodon.svg"
   inkscape:version="1.1.1 (c3084ef, 2021-09-22)"
   xmlns:inkscape="http://www.inkscape.org/namespaces/inkscape"
   xmlns:sodipodi="http://sodipodi.sourceforge.net/DTD/sodipodi-0.dtd"
   xmlns="http://www.w3.org/2000/svg"
   xmlns:svg="http://www.w3.org/2000/svg">
  <defs
     id="defs103" />
  <sodipodi:namedview
     id="namedview101"
     pagecolor="#ffffff"
     bordercolor="#666666"
     borderopacity="1.0"
     inkscape:pageshadow="2"
     inkscape:pageopacity="0.0"
     inkscape:pagecheckerboard="0"
     showgrid="false"
     inkscape:zoom="27.28125"
     inkscape:cx="15.780069"
     inkscape:cy="16.439863"
     inkscape:window-width="1296"
     inkscape:window-height="1081"
     inkscape:window-x="793"
     inkscape:window-y="99"
     inkscape:window-maximized="0"
     inkscape:current-layer="svg99" />
  <path
     d="M 15.917029,0.0725872 C 11.898823,0.08888351 7.9091151,0.59903724 5.8331639,1.5561964 c 0,0 -4.4664171,2.0332149 -4.4664171,8.9588166 0,8.24394 -0.00599,18.596924 7.399858,20.599043 2.8362242,0.762268 5.2752882,0.926333 7.2361672,0.813256 3.558583,-0.200877 5.318648,-1.291337 5.318648,-1.291337 L 21.2019,28.006532 c 0,0 -2.306573,0.812841 -5.162752,0.719718 -2.829573,-0.09977 -5.810531,-0.312123 -6.2748095,-3.84543 -0.04257,-0.328587 -0.063689,-0.66129 -0.062358,-0.992538 5.9957135,1.488619 11.1083715,0.648361 12.5158405,0.478081 3.929741,-0.477582 7.350658,-2.941714 7.787,-5.193931 0.68378,-3.549272 0.626182,-8.657419 0.626182,-8.657419 0,-6.9256017 -4.458623,-8.9588166 -4.458623,-8.9588166 C 23.983352,0.53385198 19.935235,0.05629088 15.917029,0.0725872 Z m -4.300128,5.2822722 c 1.376706,0.036916 2.737116,0.6528504 3.575212,1.9538951 l 0.810659,1.3770799 0.808061,-1.3770799 c 1.682844,-2.6167228 5.454568,-2.4534478 7.249159,-0.4287136 1.654907,1.9262918 1.286141,3.1695501 1.286141,11.7753361 v 0.0026 h -3.255627 v -7.488199 c 0,-3.5053709 -4.469015,-3.640751 -4.469015,0.485875 v 4.339103 h -3.23484 v -4.339103 c 0,-4.126626 -4.466416,-3.9938442 -4.466416,-0.488473 v 7.488199 H 6.6568138 c 0,-8.612437 -0.3621149,-9.8636778 1.2861411,-11.7753361 C 8.8469011,5.8610222 10.240195,5.3179433 11.616901,5.3548594 Z"
     id="path97"
     style="stroke-width:1.33031" />
</svg>
