<svg class="svg-icon" style="width: 1.0009765625em; height: 1em;vertical-align: middle;fill: currentColor;overflow: hidden;" viewBox="0 0 1025 1024" version="1.1" xmlns="http://www.w3.org/2000/svg"><path d="M512.473172 1023.995242A511.814852 511.814852 0 0 1 313.545134 40.351073a512.244696 512.244696 0 0 1 398.855715 943.658633 508.815937 508.815937 0 0 1-199.927677 39.985536z m0-943.658634C274.559237 80.336608 80.629391 274.266455 80.629391 512.18039s193.929846 431.843781 431.843781 431.843781 431.843781-193.929846 431.843781-431.843781S751.386745 80.336608 512.473172 80.336608z" fill="" /><path d="M506.475342 716.10662a39.985535 39.985535 0 0 1-39.985536-39.985535v-76.972156c0-79.971071 64.976495-144.947566 144.947566-144.947565a77.971794 77.971794 0 0 0 0-155.943588H445.4974a56.979388 56.979388 0 0 0-56.979387 56.979388 39.985535 39.985535 0 0 1-79.971071 0c0-74.972879 60.977941-136.950458 136.950458-136.950459h164.940333c86.968539 0 157.942864 70.974325 157.942865 157.942865s-69.974687 157.942864-157.942865 157.942864a64.976495 64.976495 0 0 0-64.976494 64.976495v76.972156a39.985535 39.985535 0 0 1-38.985897 39.985535zM505.475703 742.097218a48.982281 48.982281 0 1 0 48.982281 48.982281 48.982281 48.982281 0 0 0-48.982281-48.982281z" fill="" /></svg>